<?xml version="1.0" encoding="UTF-8"?>
<svg xmlns="http://www.w3.org/2000/svg" xmlns:xlink="http://www.w3.org/1999/xlink" width="256px" height="256px" viewBox="0 0 256 256" version="1.1">
<g id="surface1">
<path style="fill:none;stroke-width:2;stroke-linecap:round;stroke-linejoin:round;stroke:rgb(0%,0%,0%);stroke-opacity:1;stroke-miterlimit:4;" d="M 12.829834 2.180054 C 12.302856 1.939453 11.697144 1.939453 11.170166 2.180054 L 2.600098 6.079834 C 2.237549 6.239868 2.00354 6.598755 2.00354 6.994995 C 2.00354 7.391235 2.237549 7.750122 2.600098 7.910156 L 11.180054 11.819824 C 11.707031 12.060425 12.312744 12.060425 12.840088 11.819824 L 21.420044 7.920044 C 21.782593 7.76001 22.016602 7.401123 22.016602 7.004883 C 22.016602 6.608643 21.782593 6.249756 21.420044 6.090088 Z M 12.829834 2.180054 " transform="matrix(10.666667,0,0,10.666667,0,0)"/>
<path style="fill:none;stroke-width:2;stroke-linecap:round;stroke-linejoin:round;stroke:rgb(0%,0%,0%);stroke-opacity:1;stroke-miterlimit:4;" d="M 1.999878 12 C 1.999146 12.390747 2.225464 12.745972 2.579956 12.910034 L 11.180054 16.820068 C 11.704468 17.057373 12.305786 17.057373 12.829834 16.820068 L 21.410156 12.919922 C 21.771606 12.757324 22.003052 12.396606 22.000122 12 " transform="matrix(10.666667,0,0,10.666667,0,0)"/>
<path style="fill:none;stroke-width:2;stroke-linecap:round;stroke-linejoin:round;stroke:rgb(0%,0%,0%);stroke-opacity:1;stroke-miterlimit:4;" d="M 1.999878 16.999878 C 1.999146 17.390625 2.225464 17.74585 2.579956 17.909912 L 11.180054 21.819946 C 11.704468 22.057617 12.305786 22.057617 12.829834 21.819946 L 21.410156 17.920166 C 21.771606 17.757568 22.003052 17.396484 22.000122 16.999878 " transform="matrix(10.666667,0,0,10.666667,0,0)"/>
</g>
</svg>
